<svg width="80" height="99" xmlns="http://www.w3.org/2000/svg" xmlns:xlink="http://www.w3.org/1999/xlink" xml:space="preserve" overflow="hidden"><g transform="translate(-1212 -2079)"><path d="M0 8.83346C-2.22799e-15 3.95487 3.95488-2.22799e-15 8.83346-2.22799e-15L44.1665 0C49.0451-2.22799e-15 52.9999 3.95487 52.9999 8.83346L52.9999 61.1667C52.9999 66.0452 49.0451 70.0001 44.1665 70.0001L8.83346 70.0001C3.95488 70.0001 0 66.0452-1.11399e-15 61.1667Z" stroke="#042433" stroke-width="6.875" stroke-miterlimit="8" fill="#FFFFFF" fill-rule="evenodd" transform="matrix(1 -1.22465e-16 -1.22465e-16 -1 1215.5 2152.5)"/><path d="M0 8.83348C-1.12991e-15 3.95488 3.95489-1.12991e-15 8.83349-2.25982e-15L44.1664 0C49.045-2.25982e-15 52.9999 3.95488 52.9999 8.83348L52.9999 62.1667C52.9999 67.0453 49.045 71.0002 44.1664 71.0002L8.83349 71.0002C3.95489 71.0002 0 67.0453 0 62.1667Z" stroke="#042433" stroke-width="6.875" stroke-miterlimit="8" fill="#FFFFFF" fill-rule="evenodd" transform="matrix(1 -1.22465e-16 -1.22465e-16 -1 1235.5 2174.5)"/></g></svg>